<svg width="162" height="43" viewBox="0 0 162 43" fill="none" xmlns="http://www.w3.org/2000/svg">
<path d="M39.5 30.1387V12.6387H49.8375V15.6887H42.55V19.2387H48.6375V22.2887H42.55V30.1387H39.5ZM51.6582 30.1387V11.3887H54.7082V30.1387H51.6582ZM57.2129 25.5137V17.6387H60.2629V24.7137C60.2629 25.2053 60.3837 25.6553 60.6254 26.0637C60.8671 26.4637 61.1879 26.7845 61.5879 27.0262C61.9962 27.2595 62.4421 27.3762 62.9254 27.3762C63.4254 27.3762 63.8754 27.2595 64.2754 27.0262C64.6754 26.7845 64.9962 26.4637 65.2379 26.0637C65.4796 25.6553 65.6004 25.2053 65.6004 24.7137V17.6387H68.6504L68.6629 30.1387H65.6129L65.6004 29.0012C65.1671 29.4512 64.6546 29.8095 64.0629 30.0762C63.4712 30.3345 62.8379 30.4637 62.1629 30.4637C61.2546 30.4637 60.4254 30.2428 59.6754 29.8012C58.9254 29.3512 58.3254 28.7553 57.8754 28.0137C57.4337 27.2637 57.2129 26.4303 57.2129 25.5137ZM77.865 20.6887H75.44V30.1387H72.39V20.6887H70.54V17.6387H72.39V13.7137H75.44V17.6387H77.865V20.6887ZM86.825 20.6887H84.4V30.1387H81.35V20.6887H79.5V17.6387H81.35V13.7137H84.4V17.6387H86.825V20.6887ZM94.292 30.4637C93.142 30.4637 92.092 30.1678 91.142 29.5762C90.2003 28.9845 89.4462 28.1887 88.8795 27.1887C88.3212 26.1887 88.042 25.0845 88.042 23.8762C88.042 22.9678 88.2045 22.1178 88.5295 21.3262C88.8545 20.5262 89.3003 19.8262 89.867 19.2262C90.442 18.6178 91.1087 18.1428 91.867 17.8012C92.6253 17.4595 93.4337 17.2887 94.292 17.2887C95.267 17.2887 96.1587 17.497 96.967 17.9137C97.7837 18.322 98.4753 18.8845 99.042 19.6012C99.6087 20.3178 100.021 21.1345 100.279 22.0512C100.538 22.9678 100.596 23.9262 100.454 24.9262H91.317C91.4337 25.3928 91.6253 25.8137 91.892 26.1887C92.1587 26.5553 92.4962 26.8512 92.9045 27.0762C93.3128 27.2928 93.7753 27.4053 94.292 27.4137C94.8253 27.422 95.3087 27.297 95.742 27.0387C96.1837 26.772 96.5503 26.4137 96.842 25.9637L99.9545 26.6887C99.4462 27.797 98.6878 28.7053 97.6795 29.4137C96.6712 30.1137 95.542 30.4637 94.292 30.4637ZM91.217 22.6387H97.367C97.2753 22.1387 97.0795 21.6887 96.7795 21.2887C96.4878 20.8803 96.1253 20.5553 95.692 20.3137C95.2587 20.072 94.792 19.9512 94.292 19.9512C93.792 19.9512 93.3295 20.072 92.9045 20.3137C92.4795 20.547 92.117 20.8678 91.817 21.2762C91.5253 21.6762 91.3253 22.1303 91.217 22.6387ZM102.501 30.1387L102.488 17.6387H105.538L105.551 18.7512C105.976 18.3012 106.484 17.947 107.076 17.6887C107.667 17.422 108.305 17.2887 108.988 17.2887C109.447 17.2887 109.905 17.3553 110.363 17.4887L109.163 20.5637C108.847 20.4387 108.53 20.3762 108.213 20.3762C107.722 20.3762 107.272 20.497 106.863 20.7387C106.463 20.972 106.142 21.2928 105.901 21.7012C105.667 22.1012 105.551 22.547 105.551 23.0387V30.1387H102.501ZM111.766 30.1387V12.6387H122.103V15.6887H114.816V19.2387H120.903V22.2887H114.816V30.1387H111.766ZM123.924 30.1387V11.3887H126.974V30.1387H123.924ZM135.283 30.4637C134.133 30.4637 133.083 30.1678 132.133 29.5762C131.192 28.9845 130.437 28.1928 129.871 27.2012C129.312 26.2012 129.033 25.097 129.033 23.8887C129.033 22.972 129.196 22.1178 129.521 21.3262C129.846 20.5262 130.292 19.8262 130.858 19.2262C131.433 18.6178 132.1 18.1428 132.858 17.8012C133.617 17.4595 134.425 17.2887 135.283 17.2887C136.433 17.2887 137.479 17.5845 138.421 18.1762C139.371 18.7678 140.125 19.5637 140.683 20.5637C141.25 21.5637 141.533 22.672 141.533 23.8887C141.533 24.797 141.371 25.647 141.046 26.4387C140.721 27.2303 140.271 27.9303 139.696 28.5387C139.129 29.1387 138.467 29.6095 137.708 29.9512C136.958 30.2928 136.15 30.4637 135.283 30.4637ZM135.283 27.4137C135.892 27.4137 136.437 27.2512 136.921 26.9262C137.404 26.6012 137.783 26.172 138.058 25.6387C138.342 25.1053 138.483 24.522 138.483 23.8887C138.483 23.2387 138.337 22.647 138.046 22.1137C137.762 21.572 137.375 21.1428 136.883 20.8262C136.4 20.5012 135.867 20.3387 135.283 20.3387C134.683 20.3387 134.142 20.5012 133.658 20.8262C133.175 21.1512 132.792 21.5845 132.508 22.1262C132.225 22.6678 132.083 23.2553 132.083 23.8887C132.083 24.547 132.229 25.1428 132.521 25.6762C132.812 26.2095 133.2 26.6345 133.683 26.9512C134.175 27.2595 134.708 27.4137 135.283 27.4137ZM149.344 30.1387H146.319L142.144 17.6387H145.131L147.844 25.7262L150.544 17.6387H153.556L156.256 25.7262L158.969 17.6387H161.956L157.781 30.1387H154.756L152.044 22.0137L149.344 30.1387Z" fill="white"/>
<path fill-rule="evenodd" clip-rule="evenodd" d="M29.5304 7.13867C30.3902 7.13867 31.186 7.59699 31.5892 8.34203C31.9755 9.05567 31.9591 9.89663 31.5464 10.5947L31.5323 10.6181L27.9146 16.5798C27.5055 17.2539 26.767 17.6747 25.9776 17.6837L25.9518 17.6838L21.8207 17.6838L23.5377 21.5562L23.5446 21.5676L23.5551 21.5859C23.9595 22.3058 23.9496 23.1618 23.5303 23.8711L23.5162 23.8947L19.8985 29.8563C19.4893 30.5305 18.7508 30.9512 17.9615 30.9602L17.9357 30.9604L12.8652 30.9603L9.22012 34.7477L9.21322 34.7547C8.87021 35.0982 8.40676 35.2898 7.92356 35.2898C7.80277 35.2898 7.6819 35.2778 7.56233 35.2538C6.97291 35.1352 6.4832 34.7368 6.24747 34.1873L6.24082 34.1716L4.32258 29.8337L4.31249 29.8171L4.30201 29.7992C4.30027 29.7961 4.2985 29.793 4.29665 29.7897C3.89228 29.0698 3.90207 28.2138 4.32137 27.5045L4.3355 27.4809L7.8443 21.6987L5.25884 15.8678L5.30622 15.844L5.3055 15.8405C5.19611 15.3042 5.28417 14.7449 5.56512 14.255L5.58064 14.2283L5.59498 14.2044L9.2127 8.24265C9.62186 7.56856 10.3604 7.14779 11.1497 7.13867H11.1755H29.5304ZM10.5345 30.915L6.69069 30.915L7.81966 33.4877L7.82244 33.4945C7.84115 33.5406 7.87142 33.5658 7.91648 33.5749C7.95667 33.5831 7.98919 33.5747 8.01994 33.5471L8.02532 33.5419L10.5345 30.915ZM21.5229 22.0702H9.90385C9.89102 22.0702 9.87819 22.0706 9.86538 22.0715L9.86186 22.0717L13.0477 29.2506H17.9351C18.136 29.2506 18.3296 29.1447 18.4396 28.9745L18.4483 28.9606L22.0713 22.9952C22.1794 22.8173 22.1913 22.6108 22.1057 22.425C22.0069 22.2108 21.7777 22.0702 21.5229 22.0702ZM8.69605 23.5443L5.82063 28.3186C5.70621 28.5087 5.69958 28.7312 5.80204 28.9271L5.81291 28.947L5.8187 28.9567L5.8303 28.9754L5.8533 29.0091L5.87897 29.042L5.90353 29.0696L5.90779 29.0741L5.9244 29.0907L5.93883 29.1042C6.02928 29.1851 6.14109 29.2345 6.26441 29.2471L6.29212 29.2495L6.30816 29.2503L6.32848 29.2506H11.2072L8.69605 23.5443ZM7.93994 17.6953L9.20279 20.5485L9.22739 20.5402C9.44548 20.4683 9.6735 20.4294 9.90401 20.4258L9.93861 20.4256L21.2012 20.4255L19.9928 17.6954L7.93994 17.6953ZM29.4983 8.80301H17.8378L21.0246 15.9835H25.9103C26.1116 15.9835 26.3053 15.8774 26.4154 15.7072L26.4241 15.6932L30.0473 9.72799C30.1553 9.55009 30.1673 9.34379 30.0817 9.15816C29.985 8.94832 29.7632 8.80903 29.5146 8.8032L29.4983 8.80301ZM16.0528 8.80301H11.1942C10.9944 8.80301 10.8017 8.90878 10.692 9.07879L10.6833 9.09271L7.06968 15.058C6.9618 15.2361 6.94987 15.4429 7.03542 15.6289C7.13178 15.8386 7.35237 15.9774 7.59952 15.9833L7.61568 15.9835H19.2312L16.0528 8.80301Z" fill="white"/>
</svg>
